<?xml version="1.0" encoding="utf-8"?>
<!-- Generator: Adobe Illustrator 26.3.1, SVG Export Plug-In . SVG Version: 6.00 Build 0)  -->
<svg version="1.1" id="AW" xmlns="http://www.w3.org/2000/svg" xmlns:xlink="http://www.w3.org/1999/xlink" x="0px" y="0px"
	 viewBox="0 0 300 200" style="enable-background:new 0 0 300 200;" xml:space="preserve">
<style type="text/css">
	.st0{fill:url(#SVGID_1_);}
</style>
<g id="COL_x5F_B">
</g>
<g id="COL_x5F_T">
</g>
<g id="WHITE_x5F_R">
</g>
<g id="WHITE_x5F_L">
</g>
<linearGradient id="SVGID_1_" gradientUnits="userSpaceOnUse" x1="38.5712" y1="100.3248" x2="263.6809" y2="100.3248">
	<stop  offset="0" style="stop-color:#C137A2"/>
	<stop  offset="1" style="stop-color:#694ED6"/>
</linearGradient>
<path class="st0" d="M46.45,91.84v5.06h11.71v6.7H46.45v11.93h-7.88V85.15h20.45v6.69H46.45z M65.31,115.53V85.15h7.88v30.38H65.31z
	 M103.07,115.53L88.55,96.94v18.58h-7.88V85.15h7.88l14.53,18.58V85.15h7.88v30.38H103.07z M138.74,115.53l-1.96-5.28h-10.88
	l-2.09,5.28h-8.28l11.47-30.38h8.74l11.43,30.38H138.74z M131.36,94.58l-3.28,9.66h6.56L131.36,94.58z M192,91.84v23.68h-7.88V91.84
	h-7.3v-6.69h22.62v6.69H192z M220.14,115.53l-7.56-11.66v11.66h-7.88V85.15H217c2.87,0,5.37,0.55,7.42,2.69
	c1.73,1.78,2.6,4.28,2.6,6.74c0,1.91-0.59,4.05-1.73,5.6c-1.23,1.68-2.87,2.46-4.87,2.91l9.52,12.43H220.14z M214.08,91.25h-1.5
	v7.52h1.5c2.46,0,4.83-0.96,4.83-3.78C218.91,92.16,216.49,91.25,214.08,91.25z M255.26,115.53l-1.96-5.28h-10.88l-2.09,5.28h-8.33
	l11.66-30.38h8.61l11.43,30.38H255.26z M247.88,94.58l-3.28,9.66h6.56L247.88,94.58z M172.38,111.04
	c-1.98,3.86-6.72,5.38-10.81,5.38c-3.82,0-7.65-1.36-10.78-3.52l3.51-6.37c1.98,1.75,4.32,3.13,7.04,3.13
	c1.93,0,3.82-0.83,3.82-3.04c0-5.34-13.02-1.29-13.02-12.05c0-6.21,4.23-10.35,10.4-10.35c3.4,0,6.39,0.73,9.38,2.29L169.24,93
	c-1.52-1.24-3.34-2.15-5.37-2.15c-1.56,0-3.4,0.87-3.4,2.67c0,4.51,13.06,1.56,13.06,12.05
	C173.53,107.32,173.21,109.48,172.38,111.04z"/>
</svg>
